<?xml version="1.0" encoding="UTF-8" standalone="no"?>
<svg
   width="1000"
   height="330"
   viewBox="0 0 1000 330"
   role="img"
   version="1.1"
   id="svg109"
   sodipodi:docname="cyberab-banner.svg"
   inkscape:version="1.4.3 (0d15f75042, 2025-12-25)"
   xmlns:inkscape="http://www.inkscape.org/namespaces/inkscape"
   xmlns:sodipodi="http://sodipodi.sourceforge.net/DTD/sodipodi-0.dtd"
   xmlns="http://www.w3.org/2000/svg"
   xmlns:svg="http://www.w3.org/2000/svg">
  <defs
     id="defs109" />
  <sodipodi:namedview
     id="namedview109"
     pagecolor="#ffffff"
     bordercolor="#000000"
     borderopacity="0.25"
     inkscape:showpageshadow="2"
     inkscape:pageopacity="0.0"
     inkscape:pagecheckerboard="0"
     inkscape:deskcolor="#d1d1d1"
     inkscape:zoom="0.9095"
     inkscape:cx="565.69544"
     inkscape:cy="-0.54975261"
     inkscape:window-width="1920"
     inkscape:window-height="1163"
     inkscape:window-x="0"
     inkscape:window-y="0"
     inkscape:window-maximized="1"
     inkscape:current-layer="svg109" />
  <title
     id="title1">XNOR LLC — CMMC Compliance Consulting banner</title>
  <desc
     id="desc1">Dark navy banner for XNOR LLC CMMC consulting practice</desc>
  <rect
     width="1000"
     height="330"
     fill="#0a1628"
     id="rect1" />
  <g
     fill="#ffffff"
     opacity="0.06"
     id="g80">
    <circle
       cx="620"
       cy="30"
       r="1.5"
       id="circle1" />
    <circle
       cx="660"
       cy="30"
       r="1.5"
       id="circle2" />
    <circle
       cx="700"
       cy="30"
       r="1.5"
       id="circle3" />
    <circle
       cx="740"
       cy="30"
       r="1.5"
       id="circle4" />
    <circle
       cx="780"
       cy="30"
       r="1.5"
       id="circle5" />
    <circle
       cx="820"
       cy="30"
       r="1.5"
       id="circle6" />
    <circle
       cx="860"
       cy="30"
       r="1.5"
       id="circle7" />
    <circle
       cx="900"
       cy="30"
       r="1.5"
       id="circle8" />
    <circle
       cx="940"
       cy="30"
       r="1.5"
       id="circle9" />
    <circle
       cx="980"
       cy="30"
       r="1.5"
       id="circle10" />
    <circle
       cx="620"
       cy="70"
       r="1.5"
       id="circle11" />
    <circle
       cx="660"
       cy="70"
       r="1.5"
       id="circle12" />
    <circle
       cx="700"
       cy="70"
       r="1.5"
       id="circle13" />
    <circle
       cx="740"
       cy="70"
       r="1.5"
       id="circle14" />
    <circle
       cx="780"
       cy="70"
       r="1.5"
       id="circle15" />
    <circle
       cx="820"
       cy="70"
       r="1.5"
       id="circle16" />
    <circle
       cx="860"
       cy="70"
       r="1.5"
       id="circle17" />
    <circle
       cx="900"
       cy="70"
       r="1.5"
       id="circle18" />
    <circle
       cx="940"
       cy="70"
       r="1.5"
       id="circle19" />
    <circle
       cx="980"
       cy="70"
       r="1.5"
       id="circle20" />
    <circle
       cx="620"
       cy="110"
       r="1.5"
       id="circle21" />
    <circle
       cx="660"
       cy="110"
       r="1.5"
       id="circle22" />
    <circle
       cx="700"
       cy="110"
       r="1.5"
       id="circle23" />
    <circle
       cx="740"
       cy="110"
       r="1.5"
       id="circle24" />
    <circle
       cx="780"
       cy="110"
       r="1.5"
       id="circle25" />
    <circle
       cx="820"
       cy="110"
       r="1.5"
       id="circle26" />
    <circle
       cx="860"
       cy="110"
       r="1.5"
       id="circle27" />
    <circle
       cx="900"
       cy="110"
       r="1.5"
       id="circle28" />
    <circle
       cx="940"
       cy="110"
       r="1.5"
       id="circle29" />
    <circle
       cx="980"
       cy="110"
       r="1.5"
       id="circle30" />
    <circle
       cx="620"
       cy="150"
       r="1.5"
       id="circle31" />
    <circle
       cx="660"
       cy="150"
       r="1.5"
       id="circle32" />
    <circle
       cx="700"
       cy="150"
       r="1.5"
       id="circle33" />
    <circle
       cx="740"
       cy="150"
       r="1.5"
       id="circle34" />
    <circle
       cx="780"
       cy="150"
       r="1.5"
       id="circle35" />
    <circle
       cx="820"
       cy="150"
       r="1.5"
       id="circle36" />
    <circle
       cx="860"
       cy="150"
       r="1.5"
       id="circle37" />
    <circle
       cx="900"
       cy="150"
       r="1.5"
       id="circle38" />
    <circle
       cx="940"
       cy="150"
       r="1.5"
       id="circle39" />
    <circle
       cx="980"
       cy="150"
       r="1.5"
       id="circle40" />
    <circle
       cx="620"
       cy="190"
       r="1.5"
       id="circle41" />
    <circle
       cx="660"
       cy="190"
       r="1.5"
       id="circle42" />
    <circle
       cx="700"
       cy="190"
       r="1.5"
       id="circle43" />
    <circle
       cx="740"
       cy="190"
       r="1.5"
       id="circle44" />
    <circle
       cx="780"
       cy="190"
       r="1.5"
       id="circle45" />
    <circle
       cx="820"
       cy="190"
       r="1.5"
       id="circle46" />
    <circle
       cx="860"
       cy="190"
       r="1.5"
       id="circle47" />
    <circle
       cx="900"
       cy="190"
       r="1.5"
       id="circle48" />
    <circle
       cx="940"
       cy="190"
       r="1.5"
       id="circle49" />
    <circle
       cx="980"
       cy="190"
       r="1.5"
       id="circle50" />
    <circle
       cx="620"
       cy="230"
       r="1.5"
       id="circle51" />
    <circle
       cx="660"
       cy="230"
       r="1.5"
       id="circle52" />
    <circle
       cx="700"
       cy="230"
       r="1.5"
       id="circle53" />
    <circle
       cx="740"
       cy="230"
       r="1.5"
       id="circle54" />
    <circle
       cx="780"
       cy="230"
       r="1.5"
       id="circle55" />
    <circle
       cx="820"
       cy="230"
       r="1.5"
       id="circle56" />
    <circle
       cx="860"
       cy="230"
       r="1.5"
       id="circle57" />
    <circle
       cx="900"
       cy="230"
       r="1.5"
       id="circle58" />
    <circle
       cx="940"
       cy="230"
       r="1.5"
       id="circle59" />
    <circle
       cx="980"
       cy="230"
       r="1.5"
       id="circle60" />
    <circle
       cx="620"
       cy="270"
       r="1.5"
       id="circle61" />
    <circle
       cx="660"
       cy="270"
       r="1.5"
       id="circle62" />
    <circle
       cx="700"
       cy="270"
       r="1.5"
       id="circle63" />
    <circle
       cx="740"
       cy="270"
       r="1.5"
       id="circle64" />
    <circle
       cx="780"
       cy="270"
       r="1.5"
       id="circle65" />
    <circle
       cx="820"
       cy="270"
       r="1.5"
       id="circle66" />
    <circle
       cx="860"
       cy="270"
       r="1.5"
       id="circle67" />
    <circle
       cx="900"
       cy="270"
       r="1.5"
       id="circle68" />
    <circle
       cx="940"
       cy="270"
       r="1.5"
       id="circle69" />
    <circle
       cx="980"
       cy="270"
       r="1.5"
       id="circle70" />
    <circle
       cx="620"
       cy="310"
       r="1.5"
       id="circle71" />
    <circle
       cx="660"
       cy="310"
       r="1.5"
       id="circle72" />
    <circle
       cx="700"
       cy="310"
       r="1.5"
       id="circle73" />
    <circle
       cx="740"
       cy="310"
       r="1.5"
       id="circle74" />
    <circle
       cx="780"
       cy="310"
       r="1.5"
       id="circle75" />
    <circle
       cx="820"
       cy="310"
       r="1.5"
       id="circle76" />
    <circle
       cx="860"
       cy="310"
       r="1.5"
       id="circle77" />
    <circle
       cx="900"
       cy="310"
       r="1.5"
       id="circle78" />
    <circle
       cx="940"
       cy="310"
       r="1.5"
       id="circle79" />
    <circle
       cx="980"
       cy="310"
       r="1.5"
       id="circle80" />
  </g>
  <g
     stroke="#1a4fa0"
     stroke-width="1"
     opacity="0.3"
     fill="none"
     id="g86">
    <line
       x1="720"
       y1="0"
       x2="1000"
       y2="280"
       id="line80" />
    <line
       x1="760"
       y1="0"
       x2="1000"
       y2="240"
       id="line81" />
    <line
       x1="800"
       y1="0"
       x2="1000"
       y2="200"
       id="line82" />
    <line
       x1="840"
       y1="0"
       x2="1000"
       y2="160"
       id="line83" />
    <line
       x1="880"
       y1="0"
       x2="1000"
       y2="120"
       id="line84" />
    <line
       x1="920"
       y1="0"
       x2="1000"
       y2="80"
       id="line85" />
    <line
       x1="960"
       y1="0"
       x2="1000"
       y2="40"
       id="line86" />
  </g>
  <line
     x1="510"
     y1="55"
     x2="510"
     y2="275"
     stroke="#1a4fa0"
     stroke-width="0.5"
     opacity="0.45"
     id="line87" />
  <g
     transform="translate(55, 62)"
     id="g91">
    <rect
       width="90"
       height="90"
       rx="14"
       fill="#102040"
       id="rect87" />
  </g>
  <text
     x="160"
     y="126"
     font-family="Georgia, 'Times New Roman', serif"
     font-size="58"
     font-weight="700"
     fill="#ffffff"
     letter-spacing="-1"
     id="text91">XNOR</text>
  <g
     id="g1"
     transform="matrix(0.29028671,0,0,0.29028671,41.864736,49.328946)"
     style="fill:#ffffff">
    <path
       d="M -1.0455577,-0.58086537 C 14.220331,-0.67747386 14.157564,-0.7037254 28.136383,-0.56648255 64.706878,34.672193 64.649049,35.071192 100.06226,66.892173 c 35.7824,-33.619845 35.56905,-33.905574 70.03501,-67.46060867 13.96321,-0.091937 13.93285,-0.0713572 28.31346,-0.0471175 C 158.90852,41.679111 157.06749,44.907493 118.03922,83.986858 160.39121,126.41727 160.72432,127.44706 198.9585,164.79739 199.11511,181.83653 199.16339,181.73632 199,199 150.44794,152.78666 150.62155,153.25438 99.858769,100.85194 51.60172,145.6983 51.358787,145.65936 -1,199 -0.9782949,180.52292 -0.998949,180.45646 -0.9847839,162.97137 45.848132,117.26445 47.012169,116.36546 81,84 42.568314,44.275519 -1.0455577,-0.58086537 -1.0455577,-0.58086537 Z"
       fill="#f3f4f2"
       id="path2"
       transform="translate(101,98)"
       sodipodi:nodetypes="ccccccccccccc"
       style="fill:#ffffff" />
    <path
       d="M 0,0 C 20.694041,19.969763 45.01896,42.372354 74.289673,71.809419 55.93307,79.282789 79.637585,69.070104 64,76 59.142657,70.807656 30.079268,42.812669 0.45102567,13.915718 -22.385781,35.917977 -47.093808,61.862955 -61,76 L -71,73 C -44.261076,44.852209 -22.883022,23.070706 0,0 Z"
       fill="#f1f3f1"
       transform="translate(199,224)"
       id="path3"
       sodipodi:nodetypes="ccccccc"
       style="fill:#ffffff" />
    <path
       d="m 99.795181,123.26177 c 32.946289,32.75928 33.027769,32.67205 62.423879,61.67142 -10.57643,11.60002 5.95869,-6.3833 -6.53341,6.87623 -33.11136,-35.00044 -33.15604,-34.98558 -57.470289,-60.21721 0.715596,-3.5478 0.814648,-4.07672 1.57982,-8.33044 z"
       fill="#f0f3f1"
       id="path4"
       sodipodi:nodetypes="ccccc"
       style="fill:#ffffff" />
    <path
       d="m 300.74168,124.52297 c -32.94629,32.75928 -33.02777,32.67204 -62.42387,61.67142 10.57642,11.60002 -5.9587,-6.3833 6.5334,6.87623 33.11136,-35.00044 33.15604,-34.98559 57.47029,-60.21721 -0.71559,-3.5478 -0.81465,-4.07672 -1.57982,-8.33044 z"
       fill="#f0f3f1"
       id="path6"
       sodipodi:nodetypes="ccccc"
       style="fill:#ffffff" />
  </g>
  <line
     x1="162"
     y1="160"
     x2="390"
     y2="160"
     stroke="#c9a84c"
     stroke-width="1.5"
     opacity="0.8"
     id="line92" />
  <text
     x="162"
     y="182"
     font-family="Arial, sans-serif"
     font-size="15"
     font-weight="500"
     fill="#ffffff"
     id="text93">Neal Fennimore</text>
  <text
     x="162"
     y="202"
     font-family="Arial, sans-serif"
     font-size="12"
     fill="#7a9cc4"
     id="text94">Certified
        CMMC Assessor (CCA)</text>
  <text
     x="538"
     y="88"
     font-family="Arial, sans-serif"
     font-size="10"
     font-weight="500"
     fill="#4a7ab5"
     letter-spacing="2"
     id="text95">XNOR LLC</text>
  <text
     x="538"
     y="114"
     font-family="Georgia, 'Times New Roman', serif"
     font-size="22"
     font-weight="400"
     fill="#ffffff"
     letter-spacing="-0.2"
     id="text96">CMMC Compliance Consulting</text>
  <line
     x1="538"
     y1="124"
     x2="960"
     y2="124"
     stroke="#1a4fa0"
     stroke-width="0.5"
     opacity="0.5"
     id="line96" />
  <text
     x="538"
     y="148"
     font-family="Arial, sans-serif"
     font-size="12"
     fill="#7a9cc4"
     id="text97">Certified
        CMMC Assessor (CCA) · DoD Experience</text>
  <text
     x="538"
     y="172"
     font-family="Arial, sans-serif"
     font-size="12"
     fill="#93c5fd"
     id="text98">►</text>
  <text
     x="554"
     y="172"
     font-family="Arial, sans-serif"
     font-size="12"
     fill="rgba(255,255,255,0.75)"
     id="text99"
     style="fill:#ffffff">Gap Analysis &amp; CMMC Level 1/2 Assessments</text>
  <text
     x="538"
     y="192"
     font-family="Arial, sans-serif"
     font-size="12"
     fill="#93c5fd"
     id="text100">►</text>
  <text
     x="554"
     y="192"
     font-family="Arial, sans-serif"
     font-size="12"
     fill="rgba(255,255,255,0.75)"
     id="text101"
     style="fill:#ffffff">SSP &amp; POA&amp;M Development · Zero Trust Architecture</text>
  <text
     x="538"
     y="212"
     font-family="Arial, sans-serif"
     font-size="12"
     fill="#93c5fd"
     id="text102">►</text>
  <text
     x="554"
     y="212"
     font-family="Arial, sans-serif"
     font-size="12"
     fill="rgba(255,255,255,0.75)"
     id="text103"
     style="fill:#ffffff">Cloud Security (Azure/AWS) · DoD Contractor Support</text>
  <rect
     x="538"
     y="228"
     width="52"
     height="20"
     rx="10"
     fill="#102040"
     stroke="#1a4fa0"
     stroke-width="0.75"
     id="rect103" />
  <text
     x="564"
     y="242"
     font-family="Arial, sans-serif"
     font-size="11"
     font-weight="600"
     fill="#93c5fd"
     text-anchor="middle"
     id="text104">CCA</text>
  <rect
     x="598"
     y="228"
     width="52"
     height="20"
     rx="10"
     fill="#102040"
     stroke="#1a4fa0"
     stroke-width="0.75"
     id="rect104" />
  <text
     x="624"
     y="242"
     font-family="Arial, sans-serif"
     font-size="11"
     font-weight="600"
     fill="#93c5fd"
     text-anchor="middle"
     id="text105">CCP</text>
  <rect
     x="658"
     y="228"
     width="84"
     height="20"
     rx="10"
     fill="#102040"
     stroke="#1a4fa0"
     stroke-width="0.75"
     id="rect105" />
  <text
     x="700"
     y="242"
     font-family="Arial, sans-serif"
     font-size="11"
     font-weight="600"
     fill="#93c5fd"
     text-anchor="middle"
     id="text106">SecurityX</text>
  <rect
     x="750"
     y="228"
     width="112"
     height="20"
     rx="10"
     fill="#102040"
     stroke="#1a4fa0"
     stroke-width="0.75"
     id="rect106" />
  <text
     x="806"
     y="242"
     font-family="Arial, sans-serif"
     font-size="11"
     font-weight="600"
     fill="#93c5fd"
     text-anchor="middle"
     id="text107">CAE-CO · NSA</text>
  <rect
     x="870"
     y="228"
     width="86"
     height="20"
     rx="10"
     fill="#102040"
     stroke="#1a4fa0"
     stroke-width="0.75"
     id="rect107" />
  <text
     x="913"
     y="242"
     font-family="Arial, sans-serif"
     font-size="11"
     font-weight="600"
     fill="#93c5fd"
     text-anchor="middle"
     id="text108">MS · NYU</text>
  <text
     x="538"
     y="278"
     font-family="Arial, sans-serif"
     font-size="12"
     fill="#4a7ab5"
     letter-spacing="0.3"
     id="text109">xnor.company</text>
</svg>
