<svg xmlns="http://www.w3.org/2000/svg" viewBox="0 0 400 400">
    <path
        d="M-1.046-.58c15.266-.097 15.204-.124 29.182.014 36.57 35.238 36.513 35.637 71.926 67.458 35.783-33.62 35.57-33.905 70.035-67.46C184.06-.66 184.03-.64 198.411-.616c-39.502 42.295-41.344 45.523-80.372 84.603 42.352 42.43 42.685 43.46 80.92 80.81.156 17.04.204 16.94.041 34.203-48.552-46.213-48.378-45.746-99.141-98.148C51.602 145.698 51.359 145.659-1 199c.022-18.477.001-18.544.015-36.029C45.848 117.264 47.012 116.365 81 84 42.568 44.276-1.046-.58-1.046-.58"
        transform="translate(101 98)" />
    <path
        d="M0 0c20.694 19.97 45.019 42.372 74.29 71.81C55.933 79.282 79.638 69.07 64 76 59.143 70.808 30.08 42.813.451 13.916-22.386 35.918-47.094 61.863-61 76l-10-3C-44.261 44.852-22.883 23.07 0 0"
        transform="translate(199 224)" />
    <path
        d="M99.795 123.262c32.946 32.759 33.028 32.672 62.424 61.671-10.576 11.6 5.959-6.383-6.533 6.876-33.112-35-33.156-34.985-57.47-60.217.715-3.548.814-4.077 1.58-8.33m200.946 1.261c-32.947 32.76-33.028 32.672-62.424 61.671 10.576 11.6-5.959-6.383 6.533 6.877 33.112-35 33.156-34.986 57.47-60.218-.715-3.547-.814-4.076-1.58-8.33" />
</svg>